<mxfile host="app.diagrams.net" agent="Mozilla/5.0 (Macintosh; Intel Mac OS X 10_15_7) AppleWebKit/537.36 (KHTML, like Gecko) Chrome/131.0.0.0 Safari/537.36" version="25.0.3">
  <diagram name="Page-1" id="2YBvvXClWsGukQMizWep">
    <mxGraphModel dx="1283" dy="864" grid="1" gridSize="10" guides="1" tooltips="1" connect="1" arrows="1" fold="1" page="1" pageScale="1" pageWidth="850" pageHeight="1100" math="0" shadow="0">
      <root>
        <mxCell id="0" />
        <mxCell id="1" parent="0" />
        <mxCell id="ZuGu69JYZCwKqm-jfqyd-12" value="API" style="shape=umlLifeline;perimeter=lifelinePerimeter;whiteSpace=wrap;html=1;container=1;dropTarget=0;collapsible=0;recursiveResize=0;outlineConnect=0;portConstraint=eastwest;newEdgeStyle={&quot;curved&quot;:0,&quot;rounded&quot;:0};" vertex="1" parent="1">
          <mxGeometry x="505" y="379.5" width="100" height="670.5" as="geometry" />
        </mxCell>
        <mxCell id="ZuGu69JYZCwKqm-jfqyd-14" value="" style="html=1;points=[[0,0,0,0,5],[0,1,0,0,-5],[1,0,0,0,5],[1,1,0,0,-5]];perimeter=orthogonalPerimeter;outlineConnect=0;targetShapes=umlLifeline;portConstraint=eastwest;newEdgeStyle={&quot;curved&quot;:0,&quot;rounded&quot;:0};" vertex="1" parent="ZuGu69JYZCwKqm-jfqyd-12">
          <mxGeometry x="45" y="136.5" width="10" height="423.5" as="geometry" />
        </mxCell>
        <mxCell id="ZuGu69JYZCwKqm-jfqyd-15" value="" style="html=1;points=[[0,0,0,0,5],[0,1,0,0,-5],[1,0,0,0,5],[1,1,0,0,-5]];perimeter=orthogonalPerimeter;outlineConnect=0;targetShapes=umlLifeline;portConstraint=eastwest;newEdgeStyle={&quot;curved&quot;:0,&quot;rounded&quot;:0};" vertex="1" parent="ZuGu69JYZCwKqm-jfqyd-12">
          <mxGeometry x="50" y="157" width="10" height="30" as="geometry" />
        </mxCell>
        <mxCell id="GevZjJeP930Ru7AH63eg-7" value="" style="html=1;points=[[0,0,0,0,5],[0,1,0,0,-5],[1,0,0,0,5],[1,1,0,0,-5]];perimeter=orthogonalPerimeter;outlineConnect=0;targetShapes=umlLifeline;portConstraint=eastwest;newEdgeStyle={&quot;curved&quot;:0,&quot;rounded&quot;:0};" parent="ZuGu69JYZCwKqm-jfqyd-12" vertex="1">
          <mxGeometry x="50" y="311" width="10" height="27" as="geometry" />
        </mxCell>
        <mxCell id="1ZKG4CmkqfWAM7Gi57S6-19" value="redirectProfilePage()" style="html=1;verticalAlign=bottom;endArrow=open;dashed=1;endSize=8;curved=0;rounded=0;" parent="1" edge="1">
          <mxGeometry x="-0.0023" relative="1" as="geometry">
            <mxPoint x="380" y="682" as="sourcePoint" />
            <mxPoint x="210" y="682" as="targetPoint" />
            <Array as="points">
              <mxPoint x="380" y="682" />
              <mxPoint x="330" y="682" />
              <mxPoint x="300" y="682" />
            </Array>
            <mxPoint as="offset" />
          </mxGeometry>
        </mxCell>
        <mxCell id="1ZKG4CmkqfWAM7Gi57S6-25" value="" style="endArrow=none;dashed=1;html=1;rounded=0;entryX=1.003;entryY=0.77;entryDx=0;entryDy=0;entryPerimeter=0;" parent="1" edge="1">
          <mxGeometry width="50" height="50" relative="1" as="geometry">
            <mxPoint x="178" y="968" as="sourcePoint" />
            <mxPoint x="1112.79" y="968.2" as="targetPoint" />
            <Array as="points" />
          </mxGeometry>
        </mxCell>
        <mxCell id="1ZKG4CmkqfWAM7Gi57S6-6" value="&lt;b&gt;Interaction&lt;/b&gt;&amp;nbsp;Student Registration" style="shape=umlFrame;whiteSpace=wrap;html=1;pointerEvents=0;width=200;height=30;" parent="1" vertex="1">
          <mxGeometry x="160" y="320" width="970" height="750" as="geometry" />
        </mxCell>
        <mxCell id="1ZKG4CmkqfWAM7Gi57S6-11" value="API" style="shape=umlLifeline;perimeter=lifelinePerimeter;whiteSpace=wrap;html=1;container=1;dropTarget=0;collapsible=0;recursiveResize=0;outlineConnect=0;portConstraint=eastwest;newEdgeStyle={&quot;curved&quot;:0,&quot;rounded&quot;:0};" parent="1" vertex="1">
          <mxGeometry x="335" y="380" width="100" height="670" as="geometry" />
        </mxCell>
        <mxCell id="sCH4gfA3OQ8UWJsVpXfq-1" value="" style="html=1;points=[[0,0,0,0,5],[0,1,0,0,-5],[1,0,0,0,5],[1,1,0,0,-5]];perimeter=orthogonalPerimeter;outlineConnect=0;targetShapes=umlLifeline;portConstraint=eastwest;newEdgeStyle={&quot;curved&quot;:0,&quot;rounded&quot;:0};" parent="1ZKG4CmkqfWAM7Gi57S6-11" vertex="1">
          <mxGeometry x="45" y="65" width="10" height="27" as="geometry" />
        </mxCell>
        <mxCell id="sCH4gfA3OQ8UWJsVpXfq-2" value="" style="html=1;points=[[0,0,0,0,5],[0,1,0,0,-5],[1,0,0,0,5],[1,1,0,0,-5]];perimeter=orthogonalPerimeter;outlineConnect=0;targetShapes=umlLifeline;portConstraint=eastwest;newEdgeStyle={&quot;curved&quot;:0,&quot;rounded&quot;:0};" parent="1ZKG4CmkqfWAM7Gi57S6-11" vertex="1">
          <mxGeometry x="45" y="136" width="10" height="523" as="geometry" />
        </mxCell>
        <mxCell id="1ZKG4CmkqfWAM7Gi57S6-17" style="edgeStyle=orthogonalEdgeStyle;rounded=0;orthogonalLoop=1;jettySize=auto;html=1;curved=0;" parent="1" edge="1">
          <mxGeometry relative="1" as="geometry">
            <mxPoint x="209.81034482758616" y="513.9999999999999" as="sourcePoint" />
            <mxPoint x="380" y="514" as="targetPoint" />
          </mxGeometry>
        </mxCell>
        <mxCell id="1ZKG4CmkqfWAM7Gi57S6-18" value="insertCredentials(credentials)" style="edgeLabel;html=1;align=center;verticalAlign=middle;resizable=0;points=[];" parent="1ZKG4CmkqfWAM7Gi57S6-17" vertex="1" connectable="0">
          <mxGeometry x="0.0133" y="1" relative="1" as="geometry">
            <mxPoint y="-9" as="offset" />
          </mxGeometry>
        </mxCell>
        <mxCell id="1ZKG4CmkqfWAM7Gi57S6-13" value="" style="shape=umlLifeline;perimeter=lifelinePerimeter;whiteSpace=wrap;html=1;container=1;dropTarget=0;collapsible=0;recursiveResize=0;outlineConnect=0;portConstraint=eastwest;newEdgeStyle={&quot;curved&quot;:0,&quot;rounded&quot;:0};participant=umlActor;size=40;" parent="1" vertex="1">
          <mxGeometry x="200" y="380" width="20" height="680" as="geometry" />
        </mxCell>
        <mxCell id="1ZKG4CmkqfWAM7Gi57S6-14" value="Student" style="text;html=1;align=center;verticalAlign=middle;resizable=0;points=[];autosize=1;strokeColor=none;fillColor=none;" parent="1" vertex="1">
          <mxGeometry x="220" y="390" width="60" height="30" as="geometry" />
        </mxCell>
        <mxCell id="1ZKG4CmkqfWAM7Gi57S6-16" value="redirectToRegistrationPage()" style="html=1;verticalAlign=bottom;endArrow=open;dashed=1;endSize=8;curved=0;rounded=0;" parent="1" edge="1">
          <mxGeometry relative="1" as="geometry">
            <mxPoint x="380" y="488" as="sourcePoint" />
            <mxPoint x="209.5" y="488" as="targetPoint" />
            <Array as="points">
              <mxPoint x="390" y="488" />
            </Array>
            <mxPoint as="offset" />
          </mxGeometry>
        </mxCell>
        <mxCell id="1ZKG4CmkqfWAM7Gi57S6-23" value="alternative" style="shape=umlFrame;whiteSpace=wrap;html=1;pointerEvents=0;width=75;height=30;" parent="1" vertex="1">
          <mxGeometry x="180" y="600" width="930" height="450" as="geometry" />
        </mxCell>
        <mxCell id="1ZKG4CmkqfWAM7Gi57S6-24" value="if ok:" style="text;html=1;align=center;verticalAlign=middle;resizable=0;points=[];autosize=1;strokeColor=none;fillColor=none;labelBackgroundColor=default;" parent="1" vertex="1">
          <mxGeometry x="190" y="629.5" width="50" height="30" as="geometry" />
        </mxCell>
        <mxCell id="1ZKG4CmkqfWAM7Gi57S6-26" value="&lt;span style=&quot;background-color: rgb(255, 255, 255);&quot;&gt;else&lt;/span&gt;" style="text;html=1;align=center;verticalAlign=middle;resizable=0;points=[];autosize=1;strokeColor=none;fillColor=none;" parent="1" vertex="1">
          <mxGeometry x="185" y="940" width="50" height="30" as="geometry" />
        </mxCell>
        <mxCell id="1ZKG4CmkqfWAM7Gi57S6-27" value="redirectLoginPage(message)" style="html=1;verticalAlign=bottom;endArrow=open;dashed=1;endSize=8;curved=0;rounded=0;" parent="1" edge="1">
          <mxGeometry x="-0.005" relative="1" as="geometry">
            <mxPoint x="380" y="1034" as="sourcePoint" />
            <mxPoint x="209.75925925925935" y="1034" as="targetPoint" />
            <Array as="points">
              <mxPoint x="335.5" y="1034" />
              <mxPoint x="305.5" y="1034" />
            </Array>
            <mxPoint as="offset" />
          </mxGeometry>
        </mxCell>
        <mxCell id="GevZjJeP930Ru7AH63eg-2" value="" style="shape=umlLifeline;perimeter=lifelinePerimeter;whiteSpace=wrap;html=1;container=1;dropTarget=0;collapsible=0;recursiveResize=0;outlineConnect=0;portConstraint=eastwest;newEdgeStyle={&quot;curved&quot;:0,&quot;rounded&quot;:0};participant=umlActor;size=40;" parent="1" vertex="1">
          <mxGeometry x="883" y="370" width="20" height="680" as="geometry" />
        </mxCell>
        <mxCell id="ZuGu69JYZCwKqm-jfqyd-47" value="" style="html=1;points=[[0,0,0,0,5],[0,1,0,0,-5],[1,0,0,0,5],[1,1,0,0,-5]];perimeter=orthogonalPerimeter;outlineConnect=0;targetShapes=umlLifeline;portConstraint=eastwest;newEdgeStyle={&quot;curved&quot;:0,&quot;rounded&quot;:0};" vertex="1" parent="GevZjJeP930Ru7AH63eg-2">
          <mxGeometry x="5" y="490" width="10" height="27" as="geometry" />
        </mxCell>
        <mxCell id="GevZjJeP930Ru7AH63eg-3" value="Company" style="text;html=1;align=center;verticalAlign=middle;resizable=0;points=[];autosize=1;strokeColor=none;fillColor=none;" parent="1" vertex="1">
          <mxGeometry x="900" y="380" width="70" height="30" as="geometry" />
        </mxCell>
        <mxCell id="GevZjJeP930Ru7AH63eg-4" value="loop" style="shape=umlFrame;whiteSpace=wrap;html=1;pointerEvents=0;" parent="1" vertex="1">
          <mxGeometry x="580" y="800" width="500" height="135" as="geometry" />
        </mxCell>
        <mxCell id="GevZjJeP930Ru7AH63eg-5" value="for each Company" style="text;html=1;align=center;verticalAlign=middle;resizable=0;points=[];autosize=1;strokeColor=none;fillColor=none;" parent="1" vertex="1">
          <mxGeometry x="585" y="825" width="120" height="30" as="geometry" />
        </mxCell>
        <mxCell id="GevZjJeP930Ru7AH63eg-10" value="sendNotificationToCompany(company)" style="html=1;verticalAlign=bottom;endArrow=block;edgeStyle=elbowEdgeStyle;elbow=vertical;curved=0;rounded=0;" parent="1" edge="1">
          <mxGeometry x="0.001" relative="1" as="geometry">
            <mxPoint x="892.5" y="905.5" as="sourcePoint" />
            <Array as="points">
              <mxPoint x="920.19" y="905.5" />
              <mxPoint x="885.19" y="875.5" />
            </Array>
            <mxPoint x="1060.5" y="905.5" as="targetPoint" />
            <mxPoint as="offset" />
          </mxGeometry>
        </mxCell>
        <mxCell id="ZuGu69JYZCwKqm-jfqyd-1" value="API" style="shape=module;align=left;spacingLeft=20;align=center;verticalAlign=top;whiteSpace=wrap;html=1;" vertex="1" parent="1">
          <mxGeometry x="320" y="370" width="120" height="50" as="geometry" />
        </mxCell>
        <mxCell id="ZuGu69JYZCwKqm-jfqyd-2" value="RegistrationManager" style="shape=module;align=left;spacingLeft=20;align=center;verticalAlign=top;whiteSpace=wrap;html=1;" vertex="1" parent="1">
          <mxGeometry x="480" y="370" width="150" height="50" as="geometry" />
        </mxCell>
        <mxCell id="ZuGu69JYZCwKqm-jfqyd-5" style="edgeStyle=orthogonalEdgeStyle;rounded=0;orthogonalLoop=1;jettySize=auto;html=1;curved=0;" edge="1" parent="1">
          <mxGeometry relative="1" as="geometry">
            <mxPoint x="390" y="526" as="sourcePoint" />
            <mxPoint x="555.19" y="526" as="targetPoint" />
          </mxGeometry>
        </mxCell>
        <mxCell id="ZuGu69JYZCwKqm-jfqyd-6" value="insertCredentials(credentials)" style="edgeLabel;html=1;align=center;verticalAlign=middle;resizable=0;points=[];" vertex="1" connectable="0" parent="ZuGu69JYZCwKqm-jfqyd-5">
          <mxGeometry x="0.0133" y="1" relative="1" as="geometry">
            <mxPoint y="-9" as="offset" />
          </mxGeometry>
        </mxCell>
        <mxCell id="ZuGu69JYZCwKqm-jfqyd-7" value="API" style="shape=umlLifeline;perimeter=lifelinePerimeter;whiteSpace=wrap;html=1;container=1;dropTarget=0;collapsible=0;recursiveResize=0;outlineConnect=0;portConstraint=eastwest;newEdgeStyle={&quot;curved&quot;:0,&quot;rounded&quot;:0};" vertex="1" parent="1">
          <mxGeometry x="675" y="380" width="100" height="670" as="geometry" />
        </mxCell>
        <mxCell id="ZuGu69JYZCwKqm-jfqyd-9" value="" style="html=1;points=[[0,0,0,0,5],[0,1,0,0,-5],[1,0,0,0,5],[1,1,0,0,-5]];perimeter=orthogonalPerimeter;outlineConnect=0;targetShapes=umlLifeline;portConstraint=eastwest;newEdgeStyle={&quot;curved&quot;:0,&quot;rounded&quot;:0};" vertex="1" parent="ZuGu69JYZCwKqm-jfqyd-7">
          <mxGeometry x="45" y="127" width="10" height="343" as="geometry" />
        </mxCell>
        <mxCell id="ymWepqPld3naHtEsWhe9-26" value="" style="html=1;points=[[0,0,0,0,5],[0,1,0,0,-5],[1,0,0,0,5],[1,1,0,0,-5]];perimeter=orthogonalPerimeter;outlineConnect=0;targetShapes=umlLifeline;portConstraint=eastwest;newEdgeStyle={&quot;curved&quot;:0,&quot;rounded&quot;:0};" parent="ZuGu69JYZCwKqm-jfqyd-7" vertex="1">
          <mxGeometry x="50" y="211" width="10" height="27" as="geometry" />
        </mxCell>
        <mxCell id="ymWepqPld3naHtEsWhe9-27" value="writeToDb(credentials)" style="html=1;align=left;spacingLeft=2;endArrow=block;rounded=0;edgeStyle=orthogonalEdgeStyle;curved=0;rounded=0;" parent="ZuGu69JYZCwKqm-jfqyd-7" edge="1">
          <mxGeometry x="-0.6573" y="-10" relative="1" as="geometry">
            <mxPoint x="55" y="198" as="sourcePoint" />
            <Array as="points">
              <mxPoint x="55" y="206" />
              <mxPoint x="85" y="206" />
              <mxPoint x="85" y="228" />
            </Array>
            <mxPoint x="60" y="228" as="targetPoint" />
            <mxPoint as="offset" />
          </mxGeometry>
        </mxCell>
        <mxCell id="ZuGu69JYZCwKqm-jfqyd-3" value="NotificationManager&lt;div&gt;&lt;br&gt;&lt;/div&gt;" style="shape=module;align=left;spacingLeft=20;align=center;verticalAlign=top;whiteSpace=wrap;html=1;" vertex="1" parent="1">
          <mxGeometry x="818" y="370" width="150" height="50" as="geometry" />
        </mxCell>
        <mxCell id="ZuGu69JYZCwKqm-jfqyd-21" style="edgeStyle=orthogonalEdgeStyle;rounded=0;orthogonalLoop=1;jettySize=auto;html=1;curved=0;" edge="1" parent="1">
          <mxGeometry relative="1" as="geometry">
            <mxPoint x="210.00034482758616" y="439.9999999999999" as="sourcePoint" />
            <mxPoint x="380.19" y="440" as="targetPoint" />
          </mxGeometry>
        </mxCell>
        <mxCell id="ZuGu69JYZCwKqm-jfqyd-22" value="getRegistrationPage()" style="edgeLabel;html=1;align=center;verticalAlign=middle;resizable=0;points=[];" vertex="1" connectable="0" parent="ZuGu69JYZCwKqm-jfqyd-21">
          <mxGeometry x="0.0133" y="1" relative="1" as="geometry">
            <mxPoint y="-9" as="offset" />
          </mxGeometry>
        </mxCell>
        <mxCell id="ZuGu69JYZCwKqm-jfqyd-27" style="edgeStyle=orthogonalEdgeStyle;rounded=0;orthogonalLoop=1;jettySize=auto;html=1;curved=0;" edge="1" parent="1">
          <mxGeometry relative="1" as="geometry">
            <mxPoint x="557.4" y="577" as="sourcePoint" />
            <mxPoint x="722.59" y="577" as="targetPoint" />
          </mxGeometry>
        </mxCell>
        <mxCell id="ZuGu69JYZCwKqm-jfqyd-28" value="write(credentials)" style="edgeLabel;html=1;align=center;verticalAlign=middle;resizable=0;points=[];" vertex="1" connectable="0" parent="ZuGu69JYZCwKqm-jfqyd-27">
          <mxGeometry x="0.0133" y="1" relative="1" as="geometry">
            <mxPoint y="-9" as="offset" />
          </mxGeometry>
        </mxCell>
        <mxCell id="ZuGu69JYZCwKqm-jfqyd-29" value="" style="shape=umlLifeline;perimeter=lifelinePerimeter;whiteSpace=wrap;html=1;container=1;dropTarget=0;collapsible=0;recursiveResize=0;outlineConnect=0;portConstraint=eastwest;newEdgeStyle={&quot;curved&quot;:0,&quot;rounded&quot;:0};participant=umlActor;" vertex="1" parent="1">
          <mxGeometry x="1051" y="375" width="20" height="675" as="geometry" />
        </mxCell>
        <mxCell id="ZuGu69JYZCwKqm-jfqyd-34" value="&lt;div&gt;Database&lt;/div&gt;" style="shape=module;align=left;spacingLeft=20;align=center;verticalAlign=top;whiteSpace=wrap;html=1;" vertex="1" parent="1">
          <mxGeometry x="650" y="370" width="150" height="50" as="geometry" />
        </mxCell>
        <mxCell id="ZuGu69JYZCwKqm-jfqyd-35" value="Company" style="text;html=1;align=center;verticalAlign=middle;resizable=0;points=[];autosize=1;strokeColor=none;fillColor=none;" vertex="1" parent="1">
          <mxGeometry x="1060" y="390" width="70" height="30" as="geometry" />
        </mxCell>
        <mxCell id="ZuGu69JYZCwKqm-jfqyd-36" value="checkCredentials(credentials)" style="html=1;align=left;spacingLeft=2;endArrow=block;rounded=0;edgeStyle=orthogonalEdgeStyle;curved=0;rounded=0;" edge="1" parent="1">
          <mxGeometry x="-0.6573" y="-10" relative="1" as="geometry">
            <mxPoint x="560" y="536" as="sourcePoint" />
            <Array as="points">
              <mxPoint x="560" y="534" />
              <mxPoint x="590" y="534" />
              <mxPoint x="590" y="556" />
            </Array>
            <mxPoint x="565" y="556" as="targetPoint" />
            <mxPoint as="offset" />
          </mxGeometry>
        </mxCell>
        <mxCell id="ZuGu69JYZCwKqm-jfqyd-38" value="ok" style="html=1;verticalAlign=bottom;endArrow=open;dashed=1;endSize=8;curved=0;rounded=0;" edge="1" parent="1">
          <mxGeometry x="-0.0023" relative="1" as="geometry">
            <mxPoint x="730" y="655" as="sourcePoint" />
            <mxPoint x="560" y="655" as="targetPoint" />
            <Array as="points">
              <mxPoint x="730" y="655" />
              <mxPoint x="680" y="655" />
            </Array>
            <mxPoint as="offset" />
          </mxGeometry>
        </mxCell>
        <mxCell id="ZuGu69JYZCwKqm-jfqyd-40" value="findMatchingCompanies(studentProfile)" style="html=1;align=left;spacingLeft=2;endArrow=block;rounded=0;edgeStyle=orthogonalEdgeStyle;curved=0;rounded=0;" edge="1" parent="1">
          <mxGeometry x="-0.6573" y="-10" relative="1" as="geometry">
            <mxPoint x="560" y="682" as="sourcePoint" />
            <Array as="points">
              <mxPoint x="560" y="680" />
              <mxPoint x="590" y="680" />
              <mxPoint x="590" y="702" />
            </Array>
            <mxPoint x="565" y="702" as="targetPoint" />
            <mxPoint as="offset" />
          </mxGeometry>
        </mxCell>
        <mxCell id="ZuGu69JYZCwKqm-jfqyd-41" value="alternative" style="shape=umlFrame;whiteSpace=wrap;html=1;pointerEvents=0;width=75;height=30;" vertex="1" parent="1">
          <mxGeometry x="540" y="730" width="550" height="220" as="geometry" />
        </mxCell>
        <mxCell id="ZuGu69JYZCwKqm-jfqyd-42" value="if findMatchingCompanies(studentProfile):" style="text;html=1;align=center;verticalAlign=middle;resizable=0;points=[];autosize=1;strokeColor=none;fillColor=none;" vertex="1" parent="1">
          <mxGeometry x="560" y="765" width="250" height="30" as="geometry" />
        </mxCell>
        <mxCell id="ZuGu69JYZCwKqm-jfqyd-43" value="triggerNotification(company)" style="html=1;verticalAlign=bottom;endArrow=block;edgeStyle=elbowEdgeStyle;elbow=vertical;curved=0;rounded=0;" edge="1" parent="1" target="GevZjJeP930Ru7AH63eg-2">
          <mxGeometry x="0.001" relative="1" as="geometry">
            <mxPoint x="731" y="855.5" as="sourcePoint" />
            <Array as="points">
              <mxPoint x="758.19" y="855" />
              <mxPoint x="723.19" y="825" />
            </Array>
            <mxPoint x="880" y="856" as="targetPoint" />
            <mxPoint as="offset" />
          </mxGeometry>
        </mxCell>
        <mxCell id="ZuGu69JYZCwKqm-jfqyd-44" value="ProfilePage" style="html=1;verticalAlign=bottom;endArrow=open;dashed=1;endSize=8;curved=0;rounded=0;" edge="1" parent="1">
          <mxGeometry x="-0.0023" relative="1" as="geometry">
            <mxPoint x="560" y="670" as="sourcePoint" />
            <mxPoint x="390" y="670" as="targetPoint" />
            <Array as="points">
              <mxPoint x="560" y="670" />
              <mxPoint x="510" y="670" />
            </Array>
            <mxPoint as="offset" />
          </mxGeometry>
        </mxCell>
        <mxCell id="ZuGu69JYZCwKqm-jfqyd-45" value="error" style="html=1;verticalAlign=bottom;endArrow=open;dashed=1;endSize=8;curved=0;rounded=0;" edge="1" parent="1">
          <mxGeometry x="-0.0023" relative="1" as="geometry">
            <mxPoint x="725" y="1010" as="sourcePoint" />
            <mxPoint x="555" y="1010" as="targetPoint" />
            <Array as="points">
              <mxPoint x="725" y="1010" />
              <mxPoint x="675" y="1010" />
            </Array>
            <mxPoint as="offset" />
          </mxGeometry>
        </mxCell>
        <mxCell id="ZuGu69JYZCwKqm-jfqyd-46" value="LoginPage" style="html=1;verticalAlign=bottom;endArrow=open;dashed=1;endSize=8;curved=0;rounded=0;" edge="1" parent="1">
          <mxGeometry x="-0.0023" relative="1" as="geometry">
            <mxPoint x="557" y="1020" as="sourcePoint" />
            <mxPoint x="387" y="1020" as="targetPoint" />
            <Array as="points">
              <mxPoint x="557" y="1020" />
              <mxPoint x="507" y="1020" />
            </Array>
            <mxPoint as="offset" />
          </mxGeometry>
        </mxCell>
        <mxCell id="ZuGu69JYZCwKqm-jfqyd-48" style="edgeStyle=orthogonalEdgeStyle;rounded=0;orthogonalLoop=1;jettySize=auto;html=1;curved=0;" edge="1" parent="1">
          <mxGeometry relative="1" as="geometry">
            <mxPoint x="390" y="450" as="sourcePoint" />
            <mxPoint x="555.19" y="450" as="targetPoint" />
          </mxGeometry>
        </mxCell>
        <mxCell id="ZuGu69JYZCwKqm-jfqyd-49" value="getRegistrationPage()" style="edgeLabel;html=1;align=center;verticalAlign=middle;resizable=0;points=[];" vertex="1" connectable="0" parent="ZuGu69JYZCwKqm-jfqyd-48">
          <mxGeometry x="0.0133" y="1" relative="1" as="geometry">
            <mxPoint y="-9" as="offset" />
          </mxGeometry>
        </mxCell>
        <mxCell id="ZuGu69JYZCwKqm-jfqyd-51" value="" style="html=1;points=[[0,0,0,0,5],[0,1,0,0,-5],[1,0,0,0,5],[1,1,0,0,-5]];perimeter=orthogonalPerimeter;outlineConnect=0;targetShapes=umlLifeline;portConstraint=eastwest;newEdgeStyle={&quot;curved&quot;:0,&quot;rounded&quot;:0};" vertex="1" parent="1">
          <mxGeometry x="550" y="457" width="10" height="17" as="geometry" />
        </mxCell>
        <mxCell id="ZuGu69JYZCwKqm-jfqyd-52" value="RegistrationPage" style="html=1;verticalAlign=bottom;endArrow=open;dashed=1;endSize=8;curved=0;rounded=0;" edge="1" parent="1" source="ZuGu69JYZCwKqm-jfqyd-12">
          <mxGeometry relative="1" as="geometry">
            <mxPoint x="550" y="480" as="sourcePoint" />
            <mxPoint x="379.5" y="480" as="targetPoint" />
            <Array as="points" />
            <mxPoint as="offset" />
          </mxGeometry>
        </mxCell>
      </root>
    </mxGraphModel>
  </diagram>
</mxfile>
